<svg xmlns="http://www.w3.org/2000/svg" version="1.1" xmlns:xlink="http://www.w3.org/1999/xlink" width="1000" height="1000"><g clip-path="url(#SvgjsClipPath1567)"><rect width="1000" height="1000" fill="#dbf0fc"></rect><g transform="matrix(1.125,0,0,1.125,50,50)"><svg xmlns="http://www.w3.org/2000/svg" version="1.1" xmlns:xlink="http://www.w3.org/1999/xlink" width="800" height="800"><svg xmlns="http://www.w3.org/2000/svg" version="1.1" viewBox="0 0 800 800">
  <defs>
    <style>
      .cls-1 {
        fill: #fff;
      }
    </style>
  <clipPath id="SvgjsClipPath1567"><rect width="1000" height="1000" x="0" y="0" rx="500" ry="500"></rect></clipPath></defs>
  <!-- Generator: Adobe Illustrator 28.7.3, SVG Export Plug-In . SVG Version: 1.2.0 Build 164)  -->
  <g>
      <g id="Layer_1-2">
        <g>
          <path d="M241.89,526.58c-16.48,5.06-32.53,5.24-48.71,4.46-26.21-1.26-49.12-11.14-69.44-27.08-26.33-20.65-43.01-47.73-48.28-80.73-11.74-73.47,33.7-133.88,97.54-150.11,14.39-3.66,29.06-5.7,43.94-3.06,1.12.2,2.75,1.39,2.96,2.37,3.25,15.38,6.31,30.8,9.53,46.78-5.44-.75-11.23-1.83-17.08-2.31-34.72-2.84-61.43,11.27-79.59,40.26-29.57,47.2-4.57,114.24,56,125.86,31.01,5.95,56.96-3.99,78.95-26.96-6.7-5.69-13.33-11.32-20.66-17.54,30.52-9.93,60.19-19.59,91.44-29.75-1.94,32.83-3.79,64.07-5.73,96.79-8.86-6.44-16.8-12.22-25.1-18.26-1.43,2.14-2.67,3.68-3.59,5.4-32.38,60.68-3.75,140.03,68.16,158.18,66.49,16.78,121.92-23.42,133.95-81.58,10.18-49.19-6.44-93.7-55.2-120.49-23.1-12.69-48.28-20.33-72.67-29.91-20.35-8-41.29-15.36-60.1-26.24-39.95-23.09-64.06-58.95-73.86-103.77-15.47-70.74,20.5-144.41,85.03-176.21,28.27-13.93,58.1-17.51,89.25-14.93,65.31,5.4,125.16,61.24,136.74,124.85,2.55,13.98,2.5,28.44,3.56,42.68.21,2.75.03,5.52.03,8.6,6.79-1.17,12.56-2.45,18.41-3.13,34.66-3.98,66.91,2.1,95.36,23.41,30.83,23.09,49.12,53.29,53.48,92,8.31,73.65-44.07,133.42-108.58,143.81-9.3,1.5-18.86,1.72-28.31,1.95-7.52.18-9.08-1.68-10.39-9.09-1.24-7.03-2.5-14.06-4.13-21-1.59-6.76-3.67-13.4-5.63-20.43,6.02.92,11.95,2.01,17.92,2.71,29.69,3.47,54.1-7.16,73.14-29.39,21.16-24.72,25.66-53.5,14.53-83.64-11.35-30.76-34.68-48.83-66.96-53.74-27.35-4.16-51.13,4.69-71.12,23.86-3.45,3.31-3.11,5.53.55,8.24,5.15,3.82,10.06,7.96,16.25,12.91-31.13,10.36-60.91,20.26-91.94,30.58,2.07-32.72,4.06-64.19,6.15-97.33,8.83,6.76,16.41,12.56,24.31,18.61,6.85-9.62,11.25-20.25,13.85-31.58,13.06-56.87-16.44-111.31-71.19-130.96-6.62-2.37-13.87-3.25-20.91-4.12-66.25-8.2-112.95,38.41-121.63,91.26-7.31,44.48,12.81,87.3,52.06,111.53,22.92,14.15,48.27,22.76,73.46,31.66,22.22,7.85,45.07,14.4,65.06,27.25,40.31,25.9,66.46,61.89,74.02,109.82,14.74,93.5-48.85,168.17-125.33,182.55-87.93,16.53-162.47-36.1-184.22-113.19-5.31-18.84-7.75-38.11-5.31-57.75.14-1.12.02-2.27.02-4.07l.01-.03Z"></path>
        </g>
      </g>
  </g>
</svg></svg></g></g></svg>